<svg xmlns="http://www.w3.org/2000/svg" viewBox="0 0 1280 511" width="1280" height="511">
	<style>
		tspan { white-space:pre }
		.shp0 { fill: #6da544 } 
		.shp1 { fill: #ffda44 } 
		.shp2 { fill: #f0f0f0 } 
		.shp3 { fill: #0052b4 } 
		.shp4 { fill: #d80027 } 
		.shp5 { fill: #2e52b2 } 
	</style>
	<g id="Layer">
		<path id="Layer" class="shp0" d="M0 0L640 0L640 512L0 512L0 0Z" />
		<g id="Layer">
			<path id="Layer" class="shp1" d="M317 100.17L528.48 256L317 411.83L105.52 256L317 100.17Z" />
			<path id="Layer" class="shp2" d="M317 345.04C267.76 345.04 227.96 305.24 227.96 256C227.96 206.76 267.76 166.96 317 166.96C366.24 166.96 406.04 206.76 406.04 256C406.04 305.24 366.24 345.04 317 345.04Z" />
			<g id="Layer">
				<path id="Layer" class="shp3" d="M272.48 250.44C256.99 250.44 242.05 252.79 227.99 257.16C228.61 305.8 268.21 345.04 317 345.04C347.17 345.04 373.81 330.03 389.92 307.08C362.36 272.58 319.96 250.44 272.48 250.44Z" />
				<path id="Layer" class="shp3" d="M404.39 273.06C405.46 267.54 406.04 261.84 406.04 256C406.04 206.82 366.18 166.96 317 166.96C280.31 166.96 248.81 189.16 235.17 220.86C247.22 218.36 259.7 217.04 272.48 217.04C324.2 217.04 370.98 238.54 404.39 273.06Z" />
			</g>
		</g>
		<g id="Layer">
		</g>
		<g id="Layer">
		</g>
		<g id="Layer">
		</g>
		<g id="Layer">
		</g>
		<g id="Layer">
		</g>
		<g id="Layer">
		</g>
		<g id="Layer">
		</g>
		<g id="Layer">
		</g>
		<g id="Layer">
		</g>
		<g id="Layer">
		</g>
		<g id="Layer">
		</g>
		<g id="Layer">
		</g>
		<g id="Layer">
		</g>
	</g>
	<g id="Pasta 1">
		<path id="Layer" class="shp2" d="M640 0L1280 0L1280 512L640 512L640 0Z" />
		<g id="Layer">
			<path id="Layer" class="shp4" d="M768 64L1280 64L1280 128L768 128L768 64Z" />
			<path id="Layer" class="shp4" d="M768 192L1280 192L1280 256L768 256L768 192Z" />
			<path id="Layer" class="shp4" d="M640 318L1280 318L1280 382.67L640 382.67L640 318Z" />
			<path id="Layer" class="shp4" d="M640 447.33L1280 447.33L1280 512L640 512L640 447.33Z" />
		</g>
		<path id="Layer" class="shp5" d="M640 0L1024 0L1024 275.69L640 275.69L640 0Z" />
		<g id="Layer">
			<path id="Layer" class="shp2" d="M755.52 115.32L749.92 132.53L731.83 132.53L746.47 143.16L740.87 160.37L755.52 149.74L770.15 160.37L764.56 143.16L779.2 132.53L761.11 132.53L755.52 115.32Z" />
			<path id="Layer" class="shp2" d="M761.11 194.64L755.52 177.43L749.92 194.64L731.83 194.64L746.47 205.28L740.87 222.49L755.52 211.86L770.15 222.49L764.56 205.28L779.2 194.64L761.11 194.64Z" />
			<path id="Layer" class="shp2" d="M755.52 53.2L749.92 70.41L731.83 70.41L746.47 81.05L740.87 98.26L755.52 87.62L770.15 98.26L764.56 81.05L779.2 70.41L761.11 70.41L755.52 53.2Z" />
			<path id="Layer" class="shp2" d="M832 115.32L826.41 132.53L808.31 132.53L822.95 143.16L817.36 160.37L832 149.74L846.64 160.37L841.04 143.16L855.69 132.53L837.59 132.53L832 115.32Z" />
			<path id="Layer" class="shp2" d="M837.59 194.64L832 177.43L826.41 194.64L808.31 194.64L822.95 205.28L817.36 222.49L832 211.86L846.64 222.49L841.04 205.28L855.69 194.64L837.59 194.64Z" />
			<path id="Layer" class="shp2" d="M914.08 194.64L908.49 177.43L902.89 194.64L884.8 194.64L899.44 205.28L893.84 222.49L908.49 211.86L923.12 222.49L917.53 205.28L932.17 194.64L914.08 194.64Z" />
			<path id="Layer" class="shp2" d="M908.49 115.32L902.89 132.53L884.8 132.53L899.44 143.16L893.84 160.37L908.49 149.74L923.12 160.37L917.53 143.16L932.17 132.53L914.08 132.53L908.49 115.32Z" />
			<path id="Layer" class="shp2" d="M832 53.2L826.41 70.41L808.31 70.41L822.95 81.05L817.36 98.26L832 87.62L846.64 98.26L841.04 81.05L855.69 70.41L837.59 70.41L832 53.2Z" />
			<path id="Layer" class="shp2" d="M908.49 53.2L902.89 70.41L884.8 70.41L899.44 81.05L893.84 98.26L908.49 87.62L923.12 98.26L917.53 81.05L932.17 70.41L914.08 70.41L908.49 53.2Z" />
		</g>
		<g id="Layer">
		</g>
		<g id="Layer">
		</g>
		<g id="Layer">
		</g>
		<g id="Layer">
		</g>
		<g id="Layer">
		</g>
		<g id="Layer">
		</g>
		<g id="Layer">
		</g>
		<g id="Layer">
		</g>
		<g id="Layer">
		</g>
		<g id="Layer">
		</g>
		<g id="Layer">
		</g>
		<g id="Layer">
		</g>
		<g id="Layer">
		</g>
		<g id="Layer">
		</g>
		<g id="Layer">
		</g>
	</g>
</svg>