<?xml version="1.0" encoding="UTF-8" standalone="no"?>
<!DOCTYPE svg PUBLIC "-//W3C//DTD SVG 1.1//EN" "http://www.w3.org/Graphics/SVG/1.1/DTD/svg11.dtd">
<svg width="100%" height="100%" viewBox="0 0 6000 6000" version="1.1" xmlns="http://www.w3.org/2000/svg" xmlns:xlink="http://www.w3.org/1999/xlink" xml:space="preserve" xmlns:serif="http://www.serif.com/" style="fill-rule:evenodd;clip-rule:evenodd;stroke-linecap:round;stroke-linejoin:round;stroke-miterlimit:1.5;">
    <g id="pele">
        <path id="cor_pele" d="M3601.74,1568.42C3594.01,1569.86 3572.12,1572.29 3564.3,1606.55C3552.52,1658.1 3586.97,1690.78 3582.64,1695.45C3582.64,1695.45 3547.97,1702.22 3513.16,1719.14C3499.45,1725.8 3480.74,1738.97 3463.54,1753.59C3443.61,1770.53 3406,1824.43 3390.52,1841.63C3375.04,1858.83 3377.17,1860.31 3352.23,1870.63C3327.29,1880.95 3254.28,1901.99 3196.61,1936.44C3155.08,1961.25 3150.94,2000.59 3149.22,1996.29C3147.5,1991.99 3142.63,1972.31 3131.45,1949.95C3120.27,1927.59 3110.75,1909.96 3091.83,1895.34C3072.91,1880.72 3064.89,1872.88 3048.55,1856.54C3032.21,1840.2 3002.2,1800.59 2985,1786.83C2967.8,1773.07 2951.19,1769.2 2921.33,1750.1C2878.08,1722.42 2872.82,1726.65 2875.7,1706.08C2879.53,1678.78 2866.78,1593.07 2866.78,1593.07C2866.78,1593.07 2838.67,1599.11 2809.07,1586.68C2795.77,1581.11 2743.21,1550.31 2726.82,1536.8C2712.2,1524.76 2693.28,1511.86 2674.36,1486.92C2654.89,1461.27 2658.85,1466.19 2647.7,1432.74C2638.24,1404.36 2639.21,1363.82 2642.64,1327.82C2646.08,1291.7 2650.77,1248.21 2665.76,1200.59C2697.29,1100.36 2680.38,1093.9 2810.24,896.954C2829.67,867.491 2848.08,808.373 2854.96,788.593C2861.84,768.812 2860.12,744.732 2865.28,702.591C2870.44,660.451 2873.02,659.591 2876.46,641.53C2880.67,619.419 2900.61,563.294 2921.07,537.063C2941.52,510.833 2999.18,484.148 2999.18,484.148C2999.18,484.148 3039.32,454.642 3066.58,448.312C3092.34,442.33 3127.68,448.749 3151.76,456.383C3151.21,456.592 3151.38,456.693 3152.52,456.628L3151.96,456.446L3151.76,456.383C3154.32,455.397 3172.71,451.998 3180.67,451.998C3190.32,451.998 3200.03,458.392 3208.88,464.023C3217.73,469.653 3246.48,476.088 3265.78,475.283C3285.09,474.479 3345.34,493.815 3364.35,502.685C3388.48,513.946 3417.2,528.369 3434.09,537.217C3450.98,546.065 3480.49,546.923 3496.08,558.184C3511.68,569.445 3533.03,587.086 3558.72,591.912C3584.41,596.738 3629.55,639.367 3638.39,644.998C3647.24,650.628 3678.99,678.78 3681.89,687.627C3684.8,696.475 3706.45,703.932 3711.27,715.997C3716.1,728.062 3718.02,731.866 3730.09,746.344C3742.15,760.822 3756.79,772.614 3772.08,783.07C3787.36,793.527 3786.92,806.808 3800.59,812.438C3814.26,818.069 3807.83,828.246 3806.22,841.116C3804.61,853.985 3809.29,872.147 3798.84,885.821C3788.38,899.494 3775.73,930.7 3775.73,948.395C3775.73,966.09 3780.59,978.063 3774.84,1007.35C3766.21,1051.28 3736.96,1055.2 3730.52,1063.25C3724.09,1071.29 3719.9,1099.23 3718.4,1111.2C3716.8,1124.07 3705.85,1130.4 3686.47,1156.99C3674.05,1174.02 3664.9,1202.71 3668.53,1197C3677.81,1182.38 3736.05,1126.78 3792.99,1101.13C3812.16,1092.5 3833.94,1086.14 3850.9,1082.31C3867.83,1078.47 3924.42,1076.08 3933.54,1074.94C3942.66,1073.8 3970.36,1076.76 3991.54,1078C4013.43,1079.28 4035.87,1086.07 4050.69,1092.91C4065.51,1099.74 4080.57,1122.65 4091.96,1147.73C4103.36,1172.8 4105.11,1186.99 4105.11,1186.99C4105.11,1186.99 4103.11,1187.8 4125.56,1197.01C4149.47,1206.81 4157.38,1218.04 4157.77,1257.32C4158.34,1314.81 4109.79,1423.38 4109.79,1423.38C4109.79,1423.38 4078.56,1408.74 4073.81,1408.12C4066.2,1407.14 4023.86,1428.39 4007.83,1435.35C3987.25,1444.28 3971.36,1453.42 3956.11,1465.09C3940.86,1476.75 3913.01,1488.14 3890.7,1497.41C3875.37,1503.78 3848.87,1511 3824.64,1519.97C3800.42,1528.94 3766.25,1538.19 3739.33,1544.48C3712.41,1550.76 3698.04,1554.45 3658.45,1560.73C3623.52,1566.27 3615.87,1565.77 3601.74,1568.42Z" style="fill:rgb(108,71,54);"/>
        <g id="line_pele">
            <path d="M3049,716C3049,716 2973.33,666.667 2873,689" style="fill:none;stroke:rgb(46,20,11);stroke-width:19.49px;"/>
            <path d="M3078,755C3078,755 3081.88,886.019 3052,947C3032.6,986.586 2973.66,1058.58 2953,1065C2932.35,1071.42 2900.22,1064.01 2877,1079C2853.78,1093.99 2843.64,1149.18 2859,1173C2874.36,1196.82 2925.39,1237.05 3015,1245" style="fill:none;stroke:rgb(46,20,11);stroke-width:19.49px;"/>
            <path d="M3289,794C3289,794 3443.01,765.741 3580,975" style="fill:none;stroke:rgb(46,20,11);stroke-width:19.49px;"/>
            <path d="M4099,1424C4099,1424 4168.12,1259.33 4147,1227C4125.88,1194.67 4116.82,1202.04 4096,1200" style="fill:none;stroke:rgb(46,20,11);stroke-width:19.49px;"/>
            <path d="M3559,1541C3559,1541 3533.97,1580.66 3397,1604C3353.62,1611.39 3239.41,1615.86 3194.07,1611.33C3090.84,1601.01 3009.24,1572.33 3004,1564" style="fill:none;stroke:rgb(46,20,11);stroke-width:19.49px;"/>
            <path d="M3668,1286C3668,1286 3669.7,1340.24 3648,1369C3626.3,1397.77 3589.41,1456.56 3595,1503C3600.59,1549.44 3605.2,1550.74 3606.47,1565.49" style="fill:none;stroke:rgb(46,20,11);stroke-width:19.49px;"/>
            <path d="M4075,1321C4075,1321 4108.96,1207.17 4089,1168C4069.04,1128.83 4060.51,1102.87 4035,1095C4009.49,1087.13 3916.44,1090 3897,1090C3853.66,1089.99 3816.45,1100.74 3786,1118C3755.55,1135.27 3716.28,1160.05 3684,1193C3651.72,1225.95 3618.97,1267.35 3600,1282C3581.03,1296.65 3569.26,1366.4 3574,1441C3575.57,1465.75 3594.24,1473 3594.24,1473" style="fill:none;stroke:rgb(46,20,11);stroke-width:19.49px;"/>
            <path d="M2872.73,1596.04C2872.73,1596.04 2887.85,1630.13 2877.44,1708.04" style="fill:none;stroke:rgb(46,20,11);stroke-width:19.49px;"/>
        </g>
    </g>
    <g id="casaco_cabelo">
        <g id="cor_casaco_cabelo">
            <path id="casaco" d="M3720.65,2786.97C3720.65,2786.97 3745.52,2820.31 3764.36,2834.06C3770.21,2838.33 3802.78,2881.64 3851.81,2910.17C3879.83,2926.47 3945.45,2963.21 3977.54,2978.49C4009.63,2993.77 4014.16,2991.73 4063.06,3013C4111.97,3034.27 4171.94,3034.15 4235.11,3040.77C4298.28,3047.39 4420.07,3043.83 4441.97,3042.62C4542.86,3037.02 4676.01,3000.94 4662.83,3000C4651.29,2999.18 4708.84,2979.24 4721.05,2972.32C4733.25,2965.4 4777.19,2928.38 4791.43,2913.73C4805.67,2899.09 4849.61,2856.77 4859.79,2845.38C4869.96,2833.99 4914.71,2779.47 4920,2772.14C4925.29,2764.82 4953.36,2726.58 4962.31,2710.3C4971.27,2694.03 4996.08,2644.39 4998.53,2635.03C5000.97,2625.68 5007.07,2603.3 5010.32,2588.24C5013.58,2573.19 5017.65,2553.25 5020.09,2528.84C5022.53,2504.43 5021.72,2465.78 5020.09,2457.24C5018.46,2448.69 5015.21,2436.89 5009.92,2423.06C5004.63,2409.23 4986.32,2388.07 4977.78,2381.56C4969.23,2375.05 4953.85,2357.34 4950.11,2348.6C4948.89,2345.76 4946.85,2343.32 4943.19,2334.77C4938.82,2324.56 4940.34,2327.04 4932.61,2313.61C4924.88,2300.19 4925.29,2302.22 4918.78,2293.68C4912.27,2285.13 4899.66,2268.05 4890.71,2259.91C4881.76,2251.77 4882.55,2247.49 4869.55,2228.58C4851.65,2202.54 4834.15,2178.13 4823.17,2167.55C4812.18,2156.97 4798.63,2138.91 4764.58,2113.03C4662.87,2035.73 4658.37,2051.74 4629.72,2027.52C4611.8,2012.37 4589.95,1964.22 4581.32,1932.4C4574.73,1908.12 4559.14,1887.08 4552.74,1879.19C4532.21,1853.84 4501.95,1827.77 4458.01,1810.63C4414.07,1793.5 4390.08,1793.18 4373.57,1791C4357.05,1788.82 4295.05,1786.07 4282.9,1782.64C4270.74,1779.22 4264.81,1766.7 4264.81,1766.7C4264.81,1766.7 4257.52,1760.11 4254.73,1751.63C4251.57,1742.03 4250.74,1713.63 4250.48,1703.13C4249.85,1678.82 4243.62,1668.85 4243,1662.62C4241.83,1650.93 4244.87,1640.18 4241.44,1627.4C4238.01,1614.63 4234.9,1609.64 4230.84,1602.16C4226.79,1594.68 4215.58,1580.52 4207.78,1575.04C4190.23,1562.69 4175.98,1557.04 4158.6,1552.3C4129.98,1544.51 4072.85,1552.93 4071.61,1549.5C4070.36,1546.07 4071.3,1542.95 4075.66,1537.03C4080.02,1531.11 4084.07,1525.82 4090.62,1518.02C4097.16,1510.23 4106.82,1499.64 4109.94,1493.1C4113.05,1486.55 4116.17,1477.83 4117.73,1467.85C4119.28,1457.88 4120.8,1446.94 4118.44,1442.21C4116.07,1437.48 4113.7,1433.7 4107.08,1426.84C4102.53,1422.13 4087.19,1416.63 4080.33,1416.13C4070.39,1415.42 4043.7,1426.63 4000.02,1443.13C3993.24,1445.69 3940.91,1477.1 3934.05,1480.17C3927.18,1483.25 3903.2,1496.08 3894.45,1500.34C3885.7,1504.6 3863,1510.38 3857.32,1512.51C3844.64,1517.27 3796.76,1533.23 3786.35,1534.17C3775.94,1535.12 3748.37,1546.12 3735.75,1549.24C3668.8,1565.8 3645.81,1561.35 3641.2,1562.57C3636.58,1563.79 3621.58,1564.74 3616.52,1564.75C3612.58,1564.77 3604.04,1563.79 3601.33,1563.11C3598.62,1562.43 3594.29,1564.75 3594.29,1564.75C3588.89,1567.66 3569.54,1577.8 3562.66,1596.29C3555.57,1615.36 3560.61,1638.51 3564.35,1656.51C3568,1674.13 3586.27,1698.33 3586.27,1698.33C3586.27,1698.33 3545.23,1685.82 3498.43,1714.73C3482.84,1724.36 3451.2,1743.49 3414.29,1796.82C3403.92,1811.8 3390.49,1834.62 3383.32,1841.41C3376.14,1848.21 3348.97,1861.8 3348.97,1861.8C3348.97,1861.8 3257.4,1894.94 3250.6,1899.47C3243.81,1904 3197.34,1923.87 3182.62,1934.44C3167.9,1945.01 3150.43,1983.28 3150.43,1983.28C3150.43,1983.28 3137.59,1953.89 3134.95,1948.23C3132.31,1942.57 3123.82,1926.24 3121.08,1919.53C3117.55,1910.86 3111.34,1899.67 3098.13,1889.48C3084.92,1879.29 3075.28,1874.52 3064.71,1862.82C3054.14,1851.11 3035,1831.09 3029.72,1824.3C3024.43,1817.5 2996.74,1784.93 2987.69,1777.76C2978.63,1770.58 2920.95,1739.99 2914.91,1735.84C2908.87,1731.69 2872.88,1712.81 2874.38,1699.29C2876.63,1678.91 2875.64,1651.61 2874.95,1642.95C2874.01,1631.33 2866.39,1592.55 2866.39,1592.55C2866.39,1592.55 2803.97,1602.6 2797.3,1596.82C2790.64,1591.04 2738.02,1588.9 2700.46,1586.02C2662.9,1583.13 2583.45,1588.9 2563.23,1600.46C2543,1612.02 2532.89,1623.57 2521.34,1639.46C2509.78,1655.35 2504,1666.91 2496.78,1690.02C2489.56,1713.13 2479.45,1755.03 2473.67,1772.36C2467.89,1789.69 2457.78,1809.92 2457.78,1809.92C2457.78,1809.92 2433.85,1823.95 2407.84,1857.18C2381.84,1890.4 2389.49,1924.96 2392.34,1938.33C2397.8,1963.89 2405.1,1972.82 2409.81,1971.65C2423.83,1968.16 2351.47,1996.32 2288.43,2048.24C2263.32,2068.92 2255.52,2074.2 2242.08,2086.25C2228.64,2098.3 2221.68,2107.11 2217.97,2113.6C2214.27,2120.09 2211.95,2126.57 2204.53,2132.14C2197.12,2137.7 2195.26,2140.94 2188.77,2144.65C2182.28,2148.36 2172.09,2159.95 2167.45,2164.12C2162.82,2168.29 2152.15,2184.05 2147.98,2191.93C2143.81,2199.81 2130.83,2222.53 2122.49,2231.33C2114.14,2240.14 2091.89,2274.44 2085.41,2282.78C2078.92,2291.13 2044.61,2361.12 2039.52,2374.1C2034.42,2387.08 2014.49,2445.02 2011.7,2460.32C2008.92,2475.61 2001.51,2501.57 1995.48,2514.55C1989.45,2527.53 1977.4,2566.93 1972.3,2581.76C1967.21,2596.6 1959.33,2624.87 1951.44,2644.34C1943.57,2663.81 1935.22,2683.28 1931.51,2699.03C1927.81,2714.8 1934.76,2710.16 1931.51,2714.33C1928.27,2718.5 1901.47,2755.46 1888.4,2760.68C1881.45,2763.47 1863.71,2785.99 1860.59,2789.89C1856.88,2794.52 1837.63,2817.51 1833.71,2822.33C1827.68,2829.75 1802.19,2853.39 1793.38,2856.64C1784.57,2859.88 1754.91,2886.76 1744.71,2895.57C1734.51,2904.38 1687.23,2947.95 1672.86,2960.47C1658.49,2972.98 1633,2999.4 1624.19,3010.53C1615.38,3021.65 1595.92,3045.29 1580.62,3069.86C1565.32,3094.43 1566.25,3096.74 1562.54,3104.16C1558.83,3111.58 1551.42,3131.97 1546.32,3144.95C1541.22,3157.93 1528.7,3194.55 1525.92,3206.6C1523.14,3218.65 1523.4,3235.49 1526.39,3253.42C1527.78,3261.76 1531.49,3273.35 1538.9,3283.55C1546.32,3293.74 1558.37,3311.82 1568.57,3318.31C1578.77,3324.8 1587.55,3332 1597.31,3336.39C1606.58,3340.56 1642.73,3355.39 1654.32,3355.39C1665.91,3355.39 1595.25,3434.01 1588.3,3436.79C1581.35,3439.57 1726.83,3406.55 1726.83,3406.55C1726.83,3406.55 1909.06,3370.27 1925.86,3370.27C1931.88,3370.27 2016.06,3357.78 2024.86,3360.09C2033.67,3362.41 2117.61,3348.43 2135.18,3354.93C2152.74,3361.44 2184.21,3370.87 2218.45,3379.66C2345.52,3412.26 2411.93,3413.58 2426.89,3414.23C2441.85,3414.89 2568.04,3407.72 2626.87,3396.89C2649.08,3392.81 2735.59,3369.71 2770.25,3358.17C2809.19,3345.2 2921.75,3358.03 2921.75,3358.03L3011.51,3278.17C3011.51,3278.17 3124.71,3174.07 3137.08,3164.31C3149.44,3154.55 3225.28,3101.83 3225.28,3101.83C3225.28,3101.83 3350.51,3012.39 3357.02,3003C3363.53,2993.61 3391.26,2974.34 3399.81,2965.89C3408.37,2957.43 3433.54,2944.81 3439.39,2938.96C3445.25,2933.1 3489.74,2894.72 3498.2,2888.21C3506.66,2881.71 3548.72,2846.83 3559.54,2841.62C3570.36,2836.42 3607.45,2824.76 3619.81,2816.93C3632.17,2809.09 3658.84,2799.99 3669.9,2798.68C3680.96,2797.38 3671.86,2797.38 3690.72,2792.83C3709.59,2788.28 3720.65,2786.97 3720.65,2786.97Z" style="fill:rgb(105,30,155);"/>
            <g id="cabelo" transform="matrix(1,0,0,1,0,10)">
                <path d="M2887.12,594.474C2887.12,594.474 2841.18,580.126 2837.79,540.566C2831.07,462.25 2865.09,459.497 2865.09,459.497C2865.09,459.497 2808.96,434.073 2802.58,390.107C2799.4,368.226 2796.18,338.888 2807.38,318.08C2818.79,296.893 2842.07,257.072 2877.81,263.659C2937.84,274.721 2981.85,247.652 2981.85,247.652C2981.85,247.652 3018.66,161.219 3060.28,154.817C3101.89,148.414 3137.11,132.408 3191.53,151.615C3245.95,170.823 3231.15,185.445 3271.16,191.848C3311.18,198.25 3308.98,182.313 3308.98,182.313C3308.98,182.313 3318.27,150.005 3342.68,145.041C3367.09,140.077 3390.25,139.663 3410.94,143.386C3431.62,147.11 3458.51,159.934 3469.68,165.726C3480.85,171.518 3482.51,174.827 3482.51,174.827C3482.51,174.827 3528.8,168.564 3587.17,190.962C3642.63,212.237 3667.02,250.534 3667.02,250.534C3667.02,250.534 3683.98,233.986 3693.91,232.331C3697.67,231.704 3750.37,227.074 3803.12,258.808C3909.03,322.518 3980.6,416.427 3990.94,429.666C4001.28,442.904 4054.85,510.176 4059.2,555.844C4062.51,590.594 4071.88,586.015 4074.51,586.044C4150,586.863 4181.59,593.547 4211.44,629.068C4233.75,655.605 4242.06,683.676 4245.37,701.879C4248.85,721.061 4251.59,734.61 4259.02,752.764C4262.74,761.865 4265.27,774.033 4284.25,792.065C4292.53,799.926 4285.49,825.161 4285.91,833.849C4286.31,842.277 4309.9,854.948 4316.94,876.874C4323.97,898.8 4314.45,907.901 4313.63,915.347C4312.8,922.794 4246.4,968.624 4241.64,972.852C4239.06,975.149 4239.9,1065.22 4235.44,1083.31C4222.85,1134.29 4186.1,1168.05 4181.24,1169.77C4178.62,1170.7 4136.66,1203.57 4123.32,1189.07C4112.82,1177.65 4103.86,1185.99 4102.79,1181.33C4094.86,1146.87 4067.26,1090.64 4039.12,1081.64C4020.76,1075.76 3937.2,1064.5 3876.34,1074.13C3802.67,1085.8 3768.16,1104.81 3719.92,1143.32C3718.82,1144.2 3667.6,1186.28 3667.6,1186.28C3667.6,1186.28 3665.16,1169.58 3670.78,1158.32C3676.41,1147.07 3691.74,1128.61 3691.74,1128.61C3691.74,1128.61 3707.63,1106.46 3709.32,1096.89C3711,1087.33 3709.32,1074.94 3714.94,1066.5C3720.57,1058.05 3725.64,1048.49 3735.77,1040.04C3745.9,1031.6 3754.35,1019.21 3760.54,1004.58C3766.73,989.942 3768.98,980.373 3766.73,968.552C3764.48,956.731 3754.91,938.155 3763.92,923.519C3772.92,908.884 3772.36,905.506 3781.37,886.93C3790.37,868.355 3792.63,874.547 3797.69,851.467C3802.76,828.388 3809.51,816.567 3801.07,810.938C3792.63,805.309 3775.74,794.614 3767.29,784.481C3758.85,774.349 3742.53,756.899 3735.21,749.018C3727.89,741.138 3700.31,718.621 3699.18,709.052C3698.06,699.482 3696.93,700.045 3687.36,692.165C3677.79,684.284 3671.6,680.344 3666.53,670.211C3661.47,660.079 3646.27,644.318 3637.26,638.126C3628.26,631.934 3571.97,590.279 3552.83,589.153C3533.69,588.027 3531.44,581.835 3520.74,572.828C3510.05,563.822 3490.34,550.875 3468.95,545.809C3447.56,540.743 3419.98,530.048 3404.22,521.041C3388.46,512.034 3381.7,508.094 3362.56,500.776C3343.43,493.459 3325.97,494.584 3308.53,485.015C3291.08,475.446 3273.63,472.068 3259.55,471.505C3245.48,470.942 3235.35,472.068 3223.53,465.876C3211.7,459.684 3213.39,456.87 3197.63,456.307C3181.87,455.744 3161.61,458.558 3152.04,454.618C3142.47,450.678 3146.97,447.863 3134.59,446.737C3122.2,445.611 3110.38,449.552 3090.68,447.863C3070.98,446.174 3060.85,450.678 3052.4,453.492C3043.96,456.307 3010.64,473.757 3000,479.386C2989.36,485.015 2967.97,499.651 2951.08,515.412C2934.19,531.173 2938.13,537.365 2925.75,539.054C2913.36,540.743 2905.87,563.222 2904.92,563.822C2901.12,566.216 2887.12,594.474 2887.12,594.474Z" style="fill:rgb(105,30,155);"/>
            </g>
        </g>
        <g id="line_casaco_cabelo">
            <path d="M2853.74,488.222C2822.45,566.702 2863.83,587.205 2886.67,595.263" style="fill:none;stroke:rgb(37,6,72);stroke-width:19.49px;"/>
            <path d="M3999.32,766.214C3999.32,766.214 3947.95,796.86 3924.51,803.169C3901.08,809.479 3844.29,821.196 3812.74,821.196" style="fill:none;stroke:rgb(37,6,72);stroke-width:19.49px;"/>
            <path d="M4077.69,1558.8C4081.8,1563.82 4046.84,1546.46 4080.18,1518.92C4113.53,1491.37 4127.67,1451.58 4104.59,1430.64C4086.94,1414.63 4072.57,1403.7 3984.13,1457.34C3895.7,1510.99 3753.45,1553.83 3695.46,1561.08C3637.47,1568.33 3588.96,1565.99 3574.07,1588.1C3531.49,1651.37 3623.36,1743.77 3623.36,1743.77C3623.36,1743.77 3590.16,1755.23 3558.26,1805.98C3526.37,1856.72 3540.86,1949.51 3571.31,1977.05C3602.09,2004.9 3657.3,2040.35 3668.28,2046.52C3679.26,2052.7 3670.34,2187.17 3649.76,2235.19C3629.17,2283.22 3597.62,2374.47 3607.22,2421.12C3616.83,2467.77 3738.26,2575.48 3769.82,2577.54" style="fill:none;stroke:rgb(37,6,72);stroke-width:19.49px;"/>
            <path d="M3657.68,1574.65C3657.68,1574.65 3639.86,1625.06 3677.45,1645.69C3715.04,1666.32 3723.75,1689.24 3727.88,1693.37C3732,1697.5 3714.12,1746.55 3722.38,1758.01" style="fill:none;stroke:rgb(37,6,72);stroke-width:19.49px;"/>
            <path d="M3874.75,1523.44C3874.75,1523.44 3891.08,1579.67 3860.83,1609.47C3830.57,1639.27 3842.03,1665.4 3840.2,1695.66" style="fill:none;stroke:rgb(37,6,72);stroke-width:19.49px;"/>
            <path d="M3730.03,2559.02C3730.03,2559.02 3656.58,2644.79 3692.29,2721.62C3737.57,2819.04 3825.23,2880.75 3831.4,2886.24C3837.58,2891.73 4022.78,3004.04 4113.54,3020.06C4193.2,3034.11 4352.29,3039.18 4398.94,3037.21C4475.13,3033.98 4610.45,3031.45 4738.75,2962.16C4823.26,2916.51 4975.46,2688.7 4991.24,2646.16C5007.02,2603.63 5021.21,2476.69 5006.8,2443.76C4992.39,2410.83 4978.32,2393.03 4958.43,2358.72C4938.53,2324.42 4806.47,2154.55 4769.43,2126.18C4684.36,2061 4615.87,2023.96 4597.22,2024.57C4471.67,2028.69 4394.83,1939.5 4386.6,1929.21" style="fill:none;stroke:rgb(37,6,72);stroke-width:19.49px;"/>
            <path d="M3997.59,1468.85C3997.59,1468.85 4001.02,1564.9 3959.17,1607.44C3959.17,1607.44 3949.31,1628.73 3951.14,1647.53" style="fill:none;stroke:rgb(37,6,72);stroke-width:19.49px;"/>
            <path d="M3588.59,1699.7C3588.59,1699.7 3523.03,1684.45 3458.38,1756.51C3393.72,1828.58 3399.64,1846.37 3352.49,1865.9C3305.35,1885.44 3223.59,1905.99 3187.22,1938.99C3150.85,1971.99 3148.08,2006.09 3148.28,2017.34" style="fill:none;stroke:rgb(37,6,72);stroke-width:19.49px;"/>
            <path d="M4255.02,1768.19C4255.02,1768.19 4239.53,1714.66 4238.44,1653.23C4237.31,1589.41 4167.91,1554.62 4144.53,1553.25C4121.15,1551.87 4088.86,1550.96 4070.98,1567.92C4053.1,1584.89 4056.13,1605.81 4018.99,1620.93C3981.86,1636.06 3949.76,1651.19 3911.71,1657.15C3873.66,1663.11 3843.86,1691.99 3831.49,1706.66C3819.11,1721.34 3743.46,1756.18 3714.58,1762.6C3685.7,1769.01 3640.77,1757.55 3622.89,1742.88" style="fill:none;stroke:rgb(37,6,72);stroke-width:19.49px;"/>
            <path d="M3159.2,2088.16C3159.2,2088.16 3159.48,1999.76 3123.78,1939.14C3077.57,1860.67 3064.56,1879.2 3037.62,1842.16C3010.68,1805.12 2994.93,1788.52 2953.18,1763.6C2911.42,1738.68 2929.58,1757.54 2877.04,1715.78C2824.51,1674.02 2848.72,1667.23 2821.78,1656.45C2794.84,1645.67 2792.82,1646.35 2784.07,1647.69" style="fill:none;stroke:rgb(37,6,72);stroke-width:19.49px;"/>
            <path d="M1669.75,3350.34C1669.75,3350.34 1650.89,3398.68 1595.26,3443.03" style="fill:none;stroke:rgb(37,6,72);stroke-width:19.49px;"/>
            <path d="M2429.18,1964.98C2429.18,1964.98 2406.92,1982.47 2332.16,2023.55C2257.4,2064.63 2165.29,2160.05 2117.18,2242.63C2070.46,2322.85 2029.7,2389.73 1999.49,2525.87C1985.27,2589.99 1920.05,2730 1907.93,2746.84C1895.8,2763.67 1732.75,2930.02 1679.54,2967.06C1626.34,3004.1 1610.17,3035.76 1583.23,3085.6C1556.29,3135.43 1552.95,3161 1534.1,3203.43C1515.24,3245.86 1545.83,3292.06 1571.14,3317.23C1599.67,3345.59 1674.83,3349.61 1786.63,3363.75" style="fill:none;stroke:rgb(37,6,72);stroke-width:19.49px;"/>
            <path d="M2859.53,1599.22C2859.53,1599.22 2827.13,1610.01 2763.82,1595.87C2700.51,1581.72 2599.53,1591.12 2567.88,1609.98C2536.22,1628.84 2523.43,1641.63 2505.24,1698.88C2487.06,1756.13 2481.67,1785.09 2462.81,1811.35C2443.95,1837.62 2396.31,1870.64 2398.16,1896.88C2400.05,1923.69 2393.89,1977.31 2439.95,1964.25C2471.16,1955.4 2569.22,1988.48 2601.55,1977.7C2628.51,1968.72 2697.86,1955.48 2705.94,1954.13" style="fill:none;stroke:rgb(37,6,72);stroke-width:19.49px;"/>
            <path d="M2811.64,1933.79C2811.64,1933.79 2909.34,1939.18 3015.12,2050.35" style="fill:none;stroke:rgb(37,6,72);stroke-width:19.49px;"/>
            <path d="M3327.26,3028.87C3308.54,3015.04 3240.58,2954.77 3227.56,2921.41C3214.54,2888.05 3206.4,2787.96 3206.4,2787.96C3206.4,2787.96 3063.19,2818.88 2898.82,2833.53C2781.42,2843.99 2637.62,2827.02 2605.07,2823.76C2572.52,2820.51 2577.4,2833.53 2577.4,2833.53C2577.4,2833.53 2591.23,2971.86 2563.57,3023.13C2535.9,3074.39 2431.66,3168.2 2379.67,3182.61C2312.13,3201.33 2275.78,3237.68 2255.98,3273.75C2236.18,3309.83 2267.56,3390.55 2271.63,3397.06" style="fill:none;stroke:rgb(37,6,72);stroke-width:19.49px;"/>
            <path d="M3563.57,1971.48C3563.57,1971.48 3328.42,2034.14 3260.37,2081.31C3192.32,2128.47 3210.51,2121.06 3210.51,2121.06" style="fill:none;stroke:rgb(37,6,72);stroke-width:19.49px;"/>
            <path d="M2664.76,1963.43C2664.76,1963.43 2621.19,2060.1 2594.02,2104.25C2550.9,2174.32 2575.15,2159.5 2556.29,2188.47C2537.42,2217.44 2425.58,2358.93 2425.58,2358.93C2425.58,2358.93 2399.97,2569.86 2394.58,2613.62C2389.19,2657.38 2371.68,2769.9 2342.03,2811C2312.39,2852.1 2259.16,2917.45 2204.58,2970.68C2150.01,3023.91 2071.85,3090.61 2052.31,3126.99C2033.6,3161.83 2030.75,3216.6 2046.25,3257.7C2061.74,3298.8 2097.45,3339.23 2108.91,3350.01" style="fill:none;stroke:rgb(37,6,72);stroke-width:19.49px;"/>
        </g>
    </g>
    <g id="calca">
        <path id="cor_calca" d="M2924.68,4378.73C2925.98,4374.5 2927.27,4370.27 2928.3,4365.96C2929.6,4360.51 2931.03,4355.05 2931.68,4349.48C2933.08,4337.45 2933.89,4325.35 2934.44,4313.25L2936.51,4272.23C2936.04,4270.25 2920.92,4240.75 2920.92,4240.75C2920.69,4243.15 2920.46,4245.57 2920.03,4247.94C2919.04,4253.35 2918.29,4258.82 2916.66,4264.07C2913.87,4273.08 2909.55,4287.59 2898.38,4290.44C2867.73,4298.27 2835.67,4301.42 2807.65,4317.41C2787.33,4329.01 2755.28,4349.71 2734.91,4365.65C2728.64,4370.56 2722.59,4375.79 2716.84,4381.31C2711.76,4386.19 2704.96,4396.22 2698.57,4400.36C2683.57,4410.08 2658.41,4412.59 2642.09,4404.64C2637.2,4402.25 2631.27,4397.15 2628.45,4392.36C2626.04,4388.28 2624.23,4383.87 2622.55,4379.44C2621.83,4377.53 2621.56,4375.48 2621.29,4373.45C2581.92,4381.76 2542.55,4390.06 2503.11,4397.99C2458.97,4406.86 2414.81,4415.58 2370.56,4423.85C2332.51,4430.97 2294.26,4437.01 2256.21,4444.16C2189.49,4456.68 2123.59,4470.92 2056.63,4481.69C1957.23,4497.7 1858.39,4522.19 1760.66,4545.62C1681.65,4564.56 1603.02,4585.02 1523.98,4603.81C1459.7,4619.09 1393.64,4628.99 1328.15,4637.35C1254.93,4646.69 1180.58,4648.85 1106.81,4647.9C1097.85,4647.79 1054.96,4644.93 1041.34,4645.49C1000.89,4647.18 962.478,4654.66 922.175,4646.62C898.895,4641.98 878.316,4631.37 856.499,4622.66C836.717,4614.76 816.54,4610.24 797.803,4599.71C759.207,4578.02 756.605,4574.56 720.763,4550.67C682.923,4525.45 645.128,4497.82 617.57,4460.82C603.647,4442.13 592.724,4419.78 584.281,4398.15C577.93,4381.88 564.532,4347.99 562.577,4327.68C561.265,4314.05 566.874,4267.37 568.14,4258.79C571.091,4238.8 574.495,4206.55 586.539,4187.34C593.206,4176.7 602.858,4161.62 613.293,4152.08C621.423,4144.64 622.437,4145.96 629.973,4137.93C653.214,4113.16 671.172,4081.63 687.801,4052.3C698.437,4033.54 705.738,4012.63 717.472,3994.5C755.674,3935.49 797.221,3878.26 844.572,3826.18C892.226,3773.77 948.103,3730.5 1004.15,3687.57C1042.17,3658.44 1081.51,3631.54 1123.49,3608.43C1162.84,3586.75 1204.64,3570.17 1246.05,3552.92C1322.62,3521.04 1399.75,3491.59 1478.67,3465.96C1523.5,3451.39 1562.82,3442.65 1610.05,3430.98C1674.83,3414.97 1746.01,3395.05 1813.89,3383.45C1870.14,3373.85 1937.87,3366.68 1991.72,3361.23C2024.37,3357.93 2057.1,3355.44 2089.81,3352.74C2103.31,3351.63 2116.83,3350.73 2130.35,3349.82C2136.83,3352.34 2143.31,3354.86 2149.89,3357.1C2163.47,3361.71 2176.97,3366.64 2190.82,3370.36C2236.45,3382.63 2281.65,3396.76 2328.06,3405.07C2333.92,3406.12 2372.61,3411.44 2385.3,3412.75C2407.38,3415.01 2446.35,3416.05 2462.96,3415.87C2493.49,3415.54 2527.03,3408.01 2557.53,3406.59C2618.31,3403.76 2714.84,3367.79 2774.4,3356.44C2812.95,3349.09 2871.08,3348.99 2882.21,3349.14C2890.61,3349.26 2897,3351.77 2905.37,3352.41C2908.39,3352.64 2922.51,3356.62 2922.51,3356.62C2929.96,3349.87 3104.53,3191.33 3104.53,3191.33C3116,3178.98 3228,3107.36 3238.58,3098.83C3240.44,3097.32 3314.39,3035.9 3328.03,3025.26C3354.99,3004.24 3383.44,2985.17 3410.66,2964.48C3465.96,2922.45 3457.62,2910.93 3513.85,2869.98C3530.33,2857.98 3546.3,2845.14 3563.79,2834.66C3573.48,2828.86 3584.38,2825.32 3594.97,2821.37C3629.07,2808.67 3666.36,2780.49 3701.45,2770.82C3707.15,2769.25 3724.92,2764.88 3730.76,2763.99C3733.23,2763.62 3755.52,2796.69 3763.2,2806.61C3781.08,2829.71 3799.66,2847.35 3822.7,2865.48C3862.28,2896.62 3895.93,2917.72 3940.16,2940.85C3991.05,2967.46 4019.6,2980.83 4057.61,2995.48C4095.3,3010.02 4144.87,3017.42 4186.07,3020.52C4211.24,3022.41 4265.09,3025.65 4294.67,3026.89C4330.45,3028.38 4371.38,3029.81 4406.71,3028.47C4446.59,3026.97 4494.57,3024.56 4533.98,3017.86C4556.6,3014.01 4580.73,3010.24 4603.97,3003.34C4621.17,2998.23 4650.16,2990.98 4663.13,2986C4682.92,2978.4 4702.18,2969.47 4721.46,2960.65C4732.75,2955.49 4743.9,2949.01 4754.8,2943.06C4761.07,2939.63 4771.9,2929.57 4771.9,2929.57C4771.9,2929.57 4774.2,2944.91 4774.61,2951.1C4775.33,2961.72 4776.04,2972.35 4776.29,2983C4776.78,3003.46 4769.8,3040.24 4766.34,3060.16C4764.18,3072.6 4765.24,3088.78 4760.15,3100.79C4725.37,3182.81 4686.61,3262.91 4647.83,3343.07C4637.72,3363.97 4629.15,3385.67 4617.62,3405.82C4604.26,3429.16 4588.1,3450.78 4573.33,3473.25C4551.15,3507 4530.59,3541.93 4507.86,3575.31C4445.13,3667.48 4379.53,3757.89 4315.05,3848.83C4290.52,3883.42 4267.84,3919.54 4240.31,3951.8C4229.18,3964.85 4216.58,3976.59 4204.98,3989.23C4143.37,4056.38 4082.76,4124.47 4021.04,4191.52C3999.52,4214.89 3977.64,4237.92 3955.93,4261.1C3935.22,4283.23 3915.42,4306.24 3893.77,4327.45C3829,4390.88 3762.68,4452.7 3696.76,4514.93C3684.26,4526.73 3612.17,4592.58 3597.12,4604.71C3549.3,4643.26 3546.97,4640.06 3499.91,4679.33C3497.38,4681.44 3483.3,4693.44 3480.55,4698.9C3472.48,4714.97 3469.46,4738.76 3466.42,4755.82C3463.93,4769.82 3465.88,4790.21 3456.27,4802.23C3454.88,4803.96 3452.46,4804.63 3450.33,4805.27C3433.33,4810.39 3416.11,4814.8 3398.98,4819.47C3378.15,4825.15 3357.18,4830.35 3336.44,4836.32C3333.15,4837.27 3327.02,4840.56 3324.64,4843.34C3315.2,4854.41 3315.48,4861.41 3309.43,4876.7C3304.76,4888.51 3299.8,4900.2 3294.81,4911.88C3288.98,4925.53 3284.1,4940.78 3274.87,4952.93C3263.18,4968.31 3244.45,4982.75 3226.42,4990.07C3197.46,5001.82 3191.51,5001.36 3157.39,5006.82C3115.15,5013.6 3074.95,5016.48 3032.16,5015.44C2984.03,5014.27 2934.04,5013.15 2886.73,5002.69C2848.06,4994.13 2809.72,4981.2 2774.01,4964.17C2749.72,4952.59 2726.31,4941.11 2703.44,4926.94C2682.37,4913.87 2664.28,4905.15 2657.91,4879.05C2655.39,4868.69 2657.74,4853.06 2659.09,4843.34C2662.68,4817.52 2667.42,4788.51 2685.24,4767.98C2708.37,4741.35 2743.9,4727.78 2757.47,4693.06C2760.16,4686.19 2761.24,4673.26 2761.58,4666.64C2764.06,4618.03 2762.43,4618.11 2766.28,4574.23C2766.58,4570.89 2767.82,4558.65 2770.1,4554.23C2778.76,4537.49 2799.01,4529.49 2816.48,4527.05C2821.66,4526.33 2837.82,4528.07 2841.69,4522.42C2859.77,4496.06 2871.85,4465.93 2887.69,4438.27C2892.83,4429.28 2898.29,4420.47 2903.76,4411.67C2910.62,4400.62 2917.65,4389.68 2924.68,4378.73Z" style="fill:rgb(29,29,29);"/>
        <g id="line_calca">
            <path d="M2586,3920C2586,3920 2248.8,3817.35 2156,3819C2069.67,3820.53 1736.78,3769.41 1672,3771C1398.61,3777.72 1193.07,3843.65 1127,3886" style="fill:none;stroke:rgb(1,0,1);stroke-width:19.49px;"/>
            <path d="M2604,3959C2604,3959 2692.99,4146.4 2676,4283C2665.99,4363.44 2653.47,4363.11 2645,4385" style="fill:none;stroke:rgb(1,0,1);stroke-width:19.49px;"/>
            <path d="M2806,3839C2806,3839 2927.33,4026.45 2923,4106C2918.67,4185.55 2913.06,4266.9 2904,4277C2894.94,4287.1 2844.64,4291.78 2810,4307C2775.36,4322.22 2754.84,4334.33 2739,4352C2723.16,4369.67 2693.96,4406.08 2675,4406C2643.61,4405.86 2623.16,4387.83 2631,4374" style="fill:none;stroke:rgb(1,0,1);stroke-width:19.49px;"/>
            <path d="M2787,3812C2787,3812 2778.55,3779.59 2744,3756C2736.02,3750.55 2672.97,3728.5 2625,3761C2605.49,3774.22 2577.48,3807.86 2562,3816C2541.88,3826.58 2527.78,3829.31 2484,3827C2457.26,3825.59 2409.83,3820.79 2393,3831C2384.85,3835.95 2383.17,3838.7 2382.03,3841.36C2380.81,3844.18 2375.19,3850.89 2375,3861" style="fill:none;stroke:rgb(1,0,1);stroke-width:19.49px;"/>
            <path d="M2841,3615C2841,3615 2851.61,3649.22 2842,3678C2832.39,3706.78 2829.2,3724.59 2833,3738" style="fill:none;stroke:rgb(1,0,1);stroke-width:19.49px;"/>
            <path d="M2925,3364C2925,3364 2826.57,3334.17 2691,3384C2604.75,3415.71 2446.24,3423.95 2386,3419C2322.85,3413.81 2239.34,3396.79 2129,3361C2112.51,3355.65 1753.68,3383.7 1469,3476C1394.84,3500.05 1195.72,3575.58 1138,3611C1111.59,3625.55 1010.94,3683.51 939,3750" style="fill:none;stroke:rgb(1,0,1);stroke-width:19.49px;"/>
            <path d="M3726,2769C3683,2768.67 3634.53,2784.76 3510,2886C3437.8,2944.7 3312.18,3049.1 3274,3072C3235.82,3094.9 3038.47,3251.28 2995,3296C2951.53,3340.72 2915.26,3359.75 2892,3421C2868.74,3482.25 2881.56,3544.99 2882,3558C2882.44,3571.01 2800.7,3653.7 2791,3666C2781.3,3678.3 2760.12,3573.6 2771,3548C2781.89,3522.4 2801.75,3391.63 2802,3364" style="fill:none;stroke:rgb(1,0,1);stroke-width:19.49px;"/>
            <path d="M2643,4362C2643,4362 1819.86,4520.69 1767,4534C1212.18,4673.67 1061.33,4631.69 1011,4642C960.673,4652.31 837.691,4602.62 800,4584" style="fill:none;stroke:rgb(1,0,1);stroke-width:19.49px;"/>
            <path d="M2843,4532C2843,4532 2787.5,4539.47 2778,4560C2768.5,4580.53 2772.94,4654.64 2765,4691C2757.06,4727.36 2691.63,4761.24 2682,4788C2672.37,4814.76 2654.93,4871.38 2677,4898C2699.07,4924.62 2848.52,4997.05 2955,5001C3315.7,5014.39 3247.03,4960.22 3319,4839" style="fill:none;stroke:rgb(1,0,1);stroke-width:19.49px;"/>
            <path d="M3795,2857C3795,2857 3701.71,2927.24 3568,3104C3434.29,3280.76 3481.71,3247.24 3465,3281C3448.29,3314.76 3424.71,3370.24 3399,3438C3373.29,3505.76 3268.76,3760.22 3229,3848C3195.58,3921.76 3064.48,4149.7 3042,4182C3019.52,4214.3 3024.4,4208.25 3017,4217C3009.6,4225.75 2980.52,4282.25 2968,4314C2955.48,4345.75 2911.94,4420.53 2886,4462C2860.06,4503.47 2823.8,4573.43 2824,4593" style="fill:none;stroke:rgb(1,0,1);stroke-width:19.49px;"/>
            <path d="M3245,4851C3245,4851 3421.28,4810.82 3446,4796C3470.72,4781.19 3450.56,4696.5 3491,4673" style="fill:none;stroke:rgb(1,0,1);stroke-width:19.49px;"/>
            <path d="M2886,4640C2886,4640 3133.71,4762.47 3247,4764C3360.29,4765.53 3456.72,4697.54 3509,4658C3829.18,4415.85 4003.54,4190.76 4039,4157" style="fill:none;stroke:rgb(1,0,1);stroke-width:19.49px;"/>
        </g>
    </g>
    <g id="sapatos">
        <g id="cor_sapatos">
            <path d="M2832.89,3762.32C2832.89,3762.32 2903.64,3647.31 3033.79,3631.49C3062.67,3627.97 3147.75,3698.37 3174.17,3817.28C3179.38,3840.72 3172.2,3869.52 3172.59,3889.15C3173.17,3917.99 3180.11,3931.38 3180.11,3931.38C3180.11,3931.38 2941.3,4350.08 2931.39,4363.3C2921.49,4376.51 2937.34,4309.04 2937.34,4293.35C2937.34,4277.66 2920.6,4245.49 2924.79,4222.74C2930.57,4191.36 2934.58,4117 2928.2,4084.91C2906.34,3975.06 2865.44,3926.43 2844.38,3887.3C2804.79,3813.75 2785.88,3797 2785.88,3797L2832.89,3762.32Z" style="fill:rgb(97,97,97);"/>
            <path d="M2700.59,4914.12C2700.59,4914.12 2688.9,5015.51 2669.9,5063.51C2650.9,5111.51 2635.29,5154.77 2613.29,5176.77C2591.29,5198.77 2553.75,5330.72 2546.75,5381.72C2539.75,5432.72 2539.75,5483.72 2545.75,5501.72C2551.75,5519.72 2690.36,5578.26 2722.36,5581.26C2754.36,5584.26 2771.32,5573.69 2804.3,5583.47C2821.93,5588.7 2918.58,5667.98 2938.64,5681.31C2964.28,5698.34 3054.31,5756.28 3081.8,5762.38C3293.9,5809.42 3410.38,5801.36 3500.62,5782.52C3541.8,5773.93 3555.21,5730.99 3559.43,5717.78C3569.27,5687 3579.9,5585.86 3544.04,5557.25C3507.36,5527.98 3365.18,5456.68 3365.18,5456.68C3365.18,5456.68 3364.77,5419.98 3351.24,5404.91C3337.95,5390.12 3242.91,5334.25 3216.91,5306.25C3198.04,5285.93 3183.75,5212.72 3176.75,5195.72C3169.75,5178.72 3159.47,5103.61 3161.16,5078.72C3161.89,5067.93 3166.75,4998.72 3166.75,4998.72C3166.75,4998.72 3131.75,5001.72 3098.75,5004.72C3070.01,5007.33 3050.25,5005.72 3013,5005.72C2987.67,5005.72 2918.75,5001.72 2884.75,4994.72C2855.83,4988.76 2803.96,4968.23 2777.8,4956.72C2741.45,4940.72 2700.59,4914.12 2700.59,4914.12Z" style="fill:rgb(97,97,97);"/>
        </g>
        <g id="line_sapatos">
            <path d="M3024.96,3700.41C3024.96,3700.41 3095.16,3775.52 3114.79,3857.98C3134.43,3940.45 3140.81,3987.57 3138.35,4008.68" style="fill:none;stroke:rgb(37,37,37);stroke-width:19.49px;"/>
            <path d="M2970.21,3660.61C2970.21,3660.61 2973.66,3664.15 2984.03,3673.49C2995.64,3683.95 3029.99,3702.63 3029.99,3702.63C3029.99,3702.63 3073.7,3686.91 3089.1,3673.6" style="fill:none;stroke:rgb(37,37,37);stroke-width:19.49px;"/>
            <path d="M3041.1,3639.85C3041.1,3639.85 2959,3640.75 2889.15,3710.25C2819.3,3779.76 2806.45,3784.55 2783.6,3797.05" style="fill:none;stroke:rgb(37,37,37);stroke-width:19.49px;"/>
            <path d="M2926.79,4224.09C2926.79,4224.09 2939.57,4251.37 2941.77,4278.15C2944.41,4310.2 2934.49,4364.78 2934.49,4364.78" style="fill:none;stroke:rgb(37,37,37);stroke-width:19.49px;"/>
            <path d="M3209.11,5308.55C3209.11,5308.55 3302.67,5379.74 3335.89,5398.73C3356.7,5410.61 3355.56,5437.37 3356.23,5459.07" style="fill:none;stroke:rgb(37,37,37);stroke-width:19.49px;"/>
            <path d="M3158.57,5001.85C3158.57,5001.85 3144.94,5074.33 3159.61,5156C3186.26,5304.35 3263.35,5415.68 3298.6,5463.14" style="fill:none;stroke:rgb(37,37,37);stroke-width:19.49px;"/>
            <path d="M3040.28,5003.19C3034.6,5091.68 3028.82,5162.37 3037.57,5247.27C3040.9,5279.55 3043.76,5336.37 3066.41,5376.38C3111.56,5456.12 3123,5476.7 3123,5476.7C3123,5476.7 3127.07,5516.02 3122.32,5522.12" style="fill:none;stroke:rgb(37,37,37);stroke-width:19.49px;"/>
            <path d="M3562.77,5597.72C3562.77,5597.72 3575.03,5617.47 3455.18,5633.81C3335.33,5650.15 3180.37,5599.69 3109.93,5577.97C3068.56,5565.22 3042.51,5542.56 3026.17,5526.22C3016.82,5516.87 2918.62,5451.14 2891.34,5445.19C2832.1,5432.25 2780.02,5449.95 2710.2,5426.8C2701.45,5420.87 2632.57,5408.41 2567.88,5315.12" style="fill:none;stroke:rgb(37,37,37);stroke-width:19.49px;"/>
            <path d="M2706.91,4923.81C2706.91,4923.81 2685.97,5069.68 2654.06,5117.55C2622.14,5165.41 2627.46,5152.12 2602.64,5201.76C2577.82,5251.4 2572.5,5283.31 2564.53,5320.54C2556.55,5357.77 2541.48,5476.56 2552.12,5496.06C2562.75,5515.56 2664.69,5563.43 2709.9,5572.29C2755.11,5581.15 2774.61,5567.86 2810.96,5584.7C2847.3,5601.54 3015.03,5738.61 3086.59,5758.61C3216.63,5794.95 3382.56,5796.68 3496.99,5774.75C3541.68,5766.18 3566.86,5703.27 3563.45,5594.32C3562.22,5554.75 3390.49,5479.91 3378.91,5466.29C3367.33,5452.68 3109.88,5466.04 3095.68,5571.32" style="fill:none;stroke:rgb(37,37,37);stroke-width:19.49px;"/>
        </g>
    </g>
</svg>
